<svg width="19" height="14" viewBox="0 0 19 14" fill="none" xmlns="http://www.w3.org/2000/svg">
<path d="M12 7.5C12 7.36739 11.7366 7.24021 11.2678 7.14645C10.7989 7.05268 10.163 7 9.5 7C8.83696 7 8.20107 7.05268 7.73223 7.14645C7.26339 7.24021 7 7.36739 7 7.5C7 7.63261 7.26339 7.75979 7.73223 7.85355C8.20107 7.94732 8.83696 8 9.5 8C10.163 8 10.7989 7.94732 11.2678 7.85355C11.7366 7.75979 12 7.63261 12 7.5V7.5Z" stroke="#C4C4C4" stroke-width="2" stroke-linecap="round" stroke-linejoin="round"/>
<path d="M1.36316 7C2.45516 3.52257 5.70459 1 9.54202 1C13.3803 1 16.6289 3.52257 17.7209 7C16.6289 10.4774 13.3803 13 9.54202 13C5.70459 13 2.45516 10.4774 1.36316 7V7Z" stroke="#C4C4C4" stroke-width="2" stroke-linecap="round" stroke-linejoin="round"/>
</svg>
